# xmcd
#
# Track frame offsets:
#	150
#	30922
#	36229
#	43728
#	49198
#	56249
#	67845
#	74912
#	83815
#	97175
#	109644
#	119726
#	132259
#	162793
#	170981
#	183307
#	189013
#	200426
#	207933
#	213040
#	219320
#	226398
#	234268
#	240232
#	246391
#	277276
#	284035
#	291432
#	298520
#
# Disc length: 4188 seconds
#
# Revision: 1
# Processed by: cddbd v1.5.2PL0 Copyright (c) Steve Scherf et al.
# Submitted via: audiograbber 1.83.01
#
DISCID=c5105a1d
DTITLE=Buddah - Worte der Vollendung CD2
DYEAR=1986
DGENRE=Hörbuch
TTITLE0=Die drei Botschaften
TTITLE1=Kurz ist das Leben
TTITLE2=Die Vergänglichkeit
TTITLE3=Der große Pflug
TTITLE4=Der Atem der Welt
TTITLE5=Von der Nichtigkeit
TTITLE6=Das ruhige Herz
TTITLE7=Suche Frieden
TTITLE8=Irrlicht des Geistes
TTITLE9=Frei von Schmerzen
TTITLE10=Die Lampe in der Dunkelheit
TTITLE11=Vom Suchen
TTITLE12=Die beiden Räder
TTITLE13=Die Flamme des Leidens
TTITLE14=Vom rechten Tun und Lassen
TTITLE15=Morgenröte der Weisheit
TTITLE16=In der Einsiedelei
TTITLE17=Das große Erlöschen
TTITLE18=Hilfsmittel der Weisheit
TTITLE19=Unrechtes Tun ist unklug
TTITLE20=Die wahre Besonnenheit
TTITLE21=Der schlechte Einfluss
TTITLE22=Die Gemütserlösung
TTITLE23=Die Zuflucht
TTITLE24=Das Elend der Völker
TTITLE25=Das Jenseits
TTITLE26=Die Welt nach dem Tode
TTITLE27=Tödliche Leidenschaft
TTITLE28=Das Glück der Völker
EXTD=
EXTT0=
EXTT1=
EXTT2=
EXTT3=
EXTT4=
EXTT5=
EXTT6=
EXTT7=
EXTT8=
EXTT9=
EXTT10=
EXTT11=
EXTT12=
EXTT13=
EXTT14=
EXTT15=
EXTT16=
EXTT17=
EXTT18=
EXTT19=
EXTT20=
EXTT21=
EXTT22=
EXTT23=
EXTT24=
EXTT25=
EXTT26=
EXTT27=
EXTT28=
PLAYORDER=
